# File created by Blade
# Date/Time:  Fri Jan 16 14:33:41 2015
# Frame Rate: 120.000 fps
#------------------------------------------------------
:FULLY-SPECIFIED
:DEGREES
3133
root 19.101863 35.619224 -25.019070 -171.248761 -6.446877 -179.388432
Spine -18.751968 -4.551602 0.920690
Head 9.329403 -1.777091 0.158706
LeftShoulder -15.185330 -27.847581 22.040879
LeftArm 2.539533 1.657609 -4.377130
LeftForeArm 16.358229 0.000000 -0.669718
LeftHand -4.394076 -0.000000 -10.199203
LeftHandThumb1 -26.253704 0.000000 33.147579
RightShoulder -13.647987 -8.824538 -10.976292
RightArm 3.246087 47.339754 13.397653
RightForeArm -37.672432 -0.000000 6.201499
RightHand -8.530534 -0.000000 3.948455
RightHandThumb1 -24.326973 -0.000000 -32.862282
LeftUpLeg 0.225594 6.182167 0.832104
LeftLeg -5.707834 -0.000000 0.000000
LeftFoot -20.601396 24.872942 -15.223004
LeftToeBase 24.750920 -0.000000 -0.000000
RightUpLeg 0.393960 -13.247688 3.116793
RightLeg -4.024516 -0.000000 0.000000
RightFoot -22.596660 -26.010930 17.836687
RightToeBase 22.096902 -0.000000 -0.000000
3134
root 19.099989 35.618352 -25.025373 -171.242797 -6.444628 -179.394105
Spine -18.743739 -4.539646 0.914132
Head 9.309972 -1.850128 0.152197
LeftShoulder -15.186869 -27.827191 22.017416
LeftArm 2.621653 1.673046 -4.385471
LeftForeArm 16.408248 -0.000000 -0.673904
LeftHand -4.362990 -0.000000 -10.304541
LeftHandThumb1 -26.253704 0.000000 33.147579
RightShoulder -13.631653 -8.847355 -10.983641
RightArm 3.309958 47.298740 13.442906
RightForeArm -37.659464 -0.000000 6.231310
RightHand -8.472148 -0.000000 4.018199
RightHandThumb1 -24.326973 -0.000000 -32.862282
LeftUpLeg 0.238601 6.164558 0.825765
LeftLeg -5.721222 -0.000000 0.000000
LeftFoot -20.610333 24.885187 -15.233027
LeftToeBase 24.774222 -0.000000 -0.000000
RightUpLeg 0.402995 -13.249820 3.107844
RightLeg -4.032610 -0.000000 0.000000
RightFoot -22.602551 -26.012511 17.848063
RightToeBase 22.092294 -0.000000 -0.000000
3135
root 19.098298 35.617690 -25.031992 -171.229621 -6.449917 -179.395467
Spine -18.748200 -4.514412 0.904136
Head 9.288026 -1.968545 0.155250
LeftShoulder -15.155736 -27.796428 22.002039
LeftArm 2.664592 1.651347 -4.429125
LeftForeArm 16.389867 -0.000000 -0.651254
LeftHand -4.490826 -0.000000 -10.299310
LeftHandThumb1 -26.253704 0.000000 33.147579
RightShoulder -13.590484 -8.827743 -11.017772
RightArm 3.286475 47.232648 13.444683
RightForeArm -37.652235 -0.000000 6.244082
RightHand -8.499941 -0.000000 3.961408
RightHandThumb1 -24.326973 -0.000000 -32.862282
LeftUpLeg 0.238842 6.170506 0.823657
LeftLeg -5.726038 -0.000000 0.000000
LeftFoot -20.615125 24.869721 -15.229669
LeftToeBase 24.796731 -0.000000 -0.000000
RightUpLeg 0.407452 -13.273995 3.107388
RightLeg -4.046411 -0.000000 0.000000
RightFoot -22.589767 -25.959422 17.832726
RightToeBase 22.243663 -0.000000 -0.000000
3136
root 19.097315 35.616433 -25.038665 -171.228070 -6.453394 -179.403725
Spine -18.731045 -4.515037 0.885698
Head 9.264011 -2.035661 0.168293
LeftShoulder -15.149756 -27.776968 22.005213
LeftArm 2.705801 1.663001 -4.452868
LeftForeArm 16.413584 -0.000000 -0.667650
LeftHand -4.412779 0.000000 -10.306047
LeftHandThumb1 -26.253704 0.000000 33.147579
RightShoulder -13.548182 -8.834058 -11.002881
RightArm 3.306211 47.230585 13.413356
RightForeArm -37.735094 -0.000000 6.226921
RightHand -8.400623 -0.000000 4.105247
RightHandThumb1 -24.326973 -0.000000 -32.862282
LeftUpLeg 0.255768 6.145767 0.819432
LeftLeg -5.737375 -0.000000 0.000000
LeftFoot -20.608030 24.886156 -15.218455
LeftToeBase 24.751488 -0.000000 -0.000000
RightUpLeg 0.424907 -13.288349 3.098423
RightLeg -4.057033 -0.000000 0.000000
RightFoot -22.609324 -25.996851 17.829886
RightToeBase 22.090551 -0.000000 -0.000000
3137
root 19.097422 35.615100 -25.043853 -171.233064 -6.489093 -179.405811
Spine -18.696437 -4.541338 0.873059
Head 9.211734 -2.132297 0.195375
LeftShoulder -15.122204 -27.774500 21.999888
LeftArm 2.726039 1.682184 -4.467350
LeftForeArm 16.385807 -0.000000 -0.660277
LeftHand -4.427861 -0.000000 -10.329779
LeftHandThumb1 -26.253704 0.000000 33.147579
RightShoulder -13.538363 -8.857644 -11.005410
RightArm 3.407978 47.223360 13.507247
RightForeArm -37.701003 -0.000000 6.249957
RightHand -8.513830 -0.000000 3.902950
RightHandThumb1 -24.326973 -0.000000 -32.862282
LeftUpLeg 0.260031 6.113183 0.825769
LeftLeg -5.729096 -0.000000 0.000000
LeftFoot -20.617546 24.880042 -15.200083
LeftToeBase 24.798679 -0.000000 -0.000000
RightUpLeg 0.446419 -13.350097 3.100393
RightLeg -4.067732 -0.000000 0.000000
RightFoot -22.599019 -25.982165 17.806330
RightToeBase 22.076626 -0.000000 -0.000000
